<?xml version="1.0" encoding="UTF-8" standalone="no"?>
<svg width="141px" height="40px" viewBox="0 0 141 40" version="1.1" xmlns="http://www.w3.org/2000/svg" xmlns:xlink="http://www.w3.org/1999/xlink">
    <!-- Generator: sketchtool 3.6.1 (26313) - http://www.bohemiancoding.com/sketch -->
    <title>F9193D47-8BA4-492D-8380-571C3868D491</title>
    <desc>Created with sketchtool.</desc>
    <defs>
        <path d="M22.9848287,0 L27,0 L27,7.32394366 L9.375,7.32394366 L9.375,15.7746479 L24.2460937,15.7746479 L24.2460937,23.0985915 L9.375,23.0985915 L9.375,32.6760563 L27,32.6760563 L27,40 L0.01171875,40 L0.01171875,5.65238748 C14.0618756,4.33945418 23,2.36516484 23,0.157408569 C23,0.104804573 22.9949256,0.0523331202 22.9848287,6.9388939e-18 Z" id="path-1"></path>
        <filter x="-50%" y="-50%" width="200%" height="200%" filterUnits="objectBoundingBox" id="filter-3">
            <feOffset dx="0" dy="2" in="SourceAlpha" result="shadowOffsetOuter1"></feOffset>
            <feGaussianBlur stdDeviation="2.5" in="shadowOffsetOuter1" result="shadowBlurOuter1"></feGaussianBlur>
            <feColorMatrix values="0 0 0 0 0   0 0 0 0 0   0 0 0 0 0  0 0 0 0.35 0" in="shadowBlurOuter1" type="matrix" result="shadowMatrixOuter1"></feColorMatrix>
            <feMerge>
                <feMergeNode in="shadowMatrixOuter1"></feMergeNode>
                <feMergeNode in="SourceGraphic"></feMergeNode>
            </feMerge>
        </filter>
        <path d="M15.3655829,2.20229536 L21.8789063,22.6056338 L28.1086521,1.78961608 C33.3984182,1.5488804 38.3353466,1.23129329 42.8085938,0.8492509 L42.8085938,35 L33.4453125,35 L33.4453125,25.4225352 L33.9960938,6.26760563 L24.6328125,35 L18.5742188,35 L9.2109375,6.26760563 L9.76171875,25.4225352 L9.76171875,35 L0.3984375,35 L0.3984375,2.30367483 C1.59054783,2.3110703 2.79136135,2.31481714 4,2.31481714 C7.87879351,2.31481714 11.676995,2.27622801 15.3655829,2.20229536 Z" id="path-4"></path>
        <filter x="-50%" y="-50%" width="200%" height="200%" filterUnits="objectBoundingBox" id="filter-6">
            <feOffset dx="0" dy="2" in="SourceAlpha" result="shadowOffsetOuter1"></feOffset>
            <feGaussianBlur stdDeviation="2.5" in="shadowOffsetOuter1" result="shadowBlurOuter1"></feGaussianBlur>
            <feColorMatrix values="0 0 0 0 0   0 0 0 0 0   0 0 0 0 0  0 0 0 0.35 0" in="shadowBlurOuter1" type="matrix" result="shadowMatrixOuter1"></feColorMatrix>
            <feMerge>
                <feMergeNode in="shadowMatrixOuter1"></feMergeNode>
                <feMergeNode in="SourceGraphic"></feMergeNode>
            </feMerge>
        </filter>
        <path d="M28.8027003,1.2816917 C29.16975,2.34338812 29.315582,3.31510708 29.2794549,5.24222891 C29.2374374,7.48356392 28.9988653,8.88094505 28.09375,10.3380282 C27.1368769,11.8113626 25.7672616,12.8919379 23.6875,13.7183099 C26.0000102,14.1373654 27.5665635,15.1629962 28.6445312,16.5352113 C29.7508193,18.1666742 30.296875,19.9981577 30.296875,22.1690141 C30.296875,26.0787742 29.0839151,29.0228839 26.4414062,31.1830986 C24.2320028,32.9606326 20.6378819,33.9633698 15.9765625,34 L0.00390624995,34 L0.0038970172,0.150958072 C8.43326858,0.767789964 18.2431777,1.16822087 28.8027003,1.2816917 Z M14.3242187,10.3380282 C16.2292458,10.320143 17.6738731,9.94455989 18.7304687,9.21126761 C19.3608307,8.4799108 19.8320312,7.34144295 19.8320312,5.83098592 C19.8320312,4.31968773 19.36517,3.13481247 18.1796875,2.45070423 C17.497697,1.68611308 15.9914088,1.32394366 13.7734375,1.32394366 L9.3671875,1.32394366 L9.3671875,10.3380282 L14.3242187,10.3380282 Z M9.3671875,17.0985915 L9.3671875,26.6760563 L15.4257812,26.6760563 C17.3128928,26.6760563 18.6311429,26.2781427 19.28125,25.5492958 C20.4731091,24.6864644 20.9335937,23.5659031 20.9335937,22.1690141 C20.9335937,18.7908681 19.2993247,17.1168867 15.9765625,17.0985915 L9.3671875,17.0985915 L9.3671875,17.0985915 L9.3671875,17.0985915 L9.3671875,17.0985915 L9.3671875,17.0985915 L9.3671875,17.0985915 L9.3671875,17.0985915 Z" id="path-7"></path>
        <filter x="-50%" y="-50%" width="200%" height="200%" filterUnits="objectBoundingBox" id="filter-9">
            <feOffset dx="0" dy="2" in="SourceAlpha" result="shadowOffsetOuter1"></feOffset>
            <feGaussianBlur stdDeviation="2.5" in="shadowOffsetOuter1" result="shadowBlurOuter1"></feGaussianBlur>
            <feColorMatrix values="0 0 0 0 0   0 0 0 0 0   0 0 0 0 0  0 0 0 0.35 0" in="shadowBlurOuter1" type="matrix" result="shadowMatrixOuter1"></feColorMatrix>
            <feMerge>
                <feMergeNode in="shadowMatrixOuter1"></feMergeNode>
                <feMergeNode in="SourceGraphic"></feMergeNode>
            </feMerge>
        </filter>
        <path d="M9.36328125,3.03005898 L9.36328125,32.6760563 L25.8867187,32.6760563 L25.8867187,40 L0,40 L0,-3.50267546e-15 C0,-3.50267546e-15 1.88319005,-2.14734383e-09 4.01513581,-3.13838254e-09 C4.00507436,0.0523331181 4,0.104804572 4,0.157408569 C4,1.17909246 5.91415556,2.15077793 9.36328125,3.03005898 Z" id="path-10"></path>
        <filter x="-50%" y="-50%" width="200%" height="200%" filterUnits="objectBoundingBox" id="filter-12">
            <feOffset dx="0" dy="2" in="SourceAlpha" result="shadowOffsetOuter1"></feOffset>
            <feGaussianBlur stdDeviation="2.5" in="shadowOffsetOuter1" result="shadowBlurOuter1"></feGaussianBlur>
            <feColorMatrix values="0 0 0 0 0   0 0 0 0 0   0 0 0 0 0  0 0 0 0.35 0" in="shadowBlurOuter1" type="matrix" result="shadowMatrixOuter1"></feColorMatrix>
            <feMerge>
                <feMergeNode in="shadowMatrixOuter1"></feMergeNode>
                <feMergeNode in="SourceGraphic"></feMergeNode>
            </feMerge>
        </filter>
        <path id="path-13" d="M10.3515625,29 L0.98828125,29 L0.98828125,0.267605634 L10.3515625,0.267605634 L10.3515625,29 L10.3515625,29 L10.3515625,29 L10.3515625,29 Z"></path>
        <filter x="-50%" y="-50%" width="200%" height="200%" filterUnits="objectBoundingBox" id="filter-15">
            <feOffset dx="0" dy="2" in="SourceAlpha" result="shadowOffsetOuter1"></feOffset>
            <feGaussianBlur stdDeviation="2.5" in="shadowOffsetOuter1" result="shadowBlurOuter1"></feGaussianBlur>
            <feColorMatrix values="0 0 0 0 0   0 0 0 0 0   0 0 0 0 0  0 0 0 0.35 0" in="shadowBlurOuter1" type="matrix" result="shadowMatrixOuter1"></feColorMatrix>
            <feMerge>
                <feMergeNode in="shadowMatrixOuter1"></feMergeNode>
                <feMergeNode in="SourceGraphic"></feMergeNode>
            </feMerge>
        </filter>
    </defs>
    <g id="Design" stroke="none" stroke-width="1" fill="none" fill-rule="evenodd">
        <g id="Main_992-Copy" transform="translate(-701.000000, -151.000000)">
            <g id="Logo" transform="translate(701.000000, 151.000000)">
                <g id="Rectangle-508-Copy-4" transform="translate(114.000000, 0.000000)">
                    <mask id="mask-2" fill="white">
                        <use xlink:href="#path-1"></use>
                    </mask>
                    <use id="Mask" fill="#F7CE40" xlink:href="#path-1"></use>
                    <rect fill="#F7CE40" filter="url(#filter-3)" mask="url(#mask-2)" x="-114" y="20" width="141" height="20"></rect>
                </g>
                <g id="Rectangle-508-Copy-3" transform="translate(69.000000, 5.000000)">
                    <mask id="mask-5" fill="white">
                        <use xlink:href="#path-4"></use>
                    </mask>
                    <use id="Mask" fill="#F7CE40" xlink:href="#path-4"></use>
                    <rect fill="#F7CE40" filter="url(#filter-6)" mask="url(#mask-5)" x="-69" y="15" width="141" height="20"></rect>
                </g>
                <g id="Rectangle-508-Copy-2" transform="translate(38.000000, 6.000000)">
                    <mask id="mask-8" fill="white">
                        <use xlink:href="#path-7"></use>
                    </mask>
                    <use id="Mask" fill="#F7CE40" xlink:href="#path-7"></use>
                    <rect fill="#F7CE40" filter="url(#filter-9)" mask="url(#mask-8)" x="-38" y="14" width="141" height="20"></rect>
                </g>
                <path d="M35.8563043,5.98675167 C35.5926545,6.45864578 35.2143111,6.90068776 34.6992187,7.32394366 C34.0541816,8.02931831 32.861325,8.45070423 31.3945312,8.45070423 C29.9277375,8.45070423 28.7348809,8.02931831 28.0898437,7.32394366 C27.2593683,6.64153471 26.7843666,5.91029208 26.5724027,5.08383712 C29.3980975,5.41678714 32.5071302,5.71936894 35.8563043,5.98675167 Z" id="Combined-Shape" fill="#F7CE40"></path>
                <g id="Rectangle-508">
                    <mask id="mask-11" fill="white">
                        <use xlink:href="#path-10"></use>
                    </mask>
                    <use id="Mask" fill="#F7CE40" xlink:href="#path-10"></use>
                    <rect fill="#F7CE40" filter="url(#filter-12)" mask="url(#mask-11)" x="0" y="20" width="141" height="20"></rect>
                </g>
                <g id="Rectangle-508-Copy" transform="translate(26.000000, 11.000000)">
                    <mask id="mask-14" fill="white">
                        <use xlink:href="#path-13"></use>
                    </mask>
                    <use id="Mask" fill="#F7CE40" xlink:href="#path-13"></use>
                    <rect fill="#F7CE40" filter="url(#filter-15)" mask="url(#mask-14)" x="-26" y="9" width="141" height="20"></rect>
                </g>
            </g>
        </g>
    </g>
</svg>