<?xml version="1.0" encoding="UTF-8" standalone="no"?>
<svg width="18px" height="18px" viewBox="0 0 18 18" version="1.1" xmlns="http://www.w3.org/2000/svg" xmlns:xlink="http://www.w3.org/1999/xlink" xmlns:sketch="http://www.bohemiancoding.com/sketch/ns">
    <!-- Generator: Sketch 3.5.1 (25234) - http://www.bohemiancoding.com/sketch -->
    <title>person-outline</title>
    <desc>Created with Sketch.</desc>
    <defs></defs>
    <g id="Page-1" stroke="none" stroke-width="1" fill="none" fill-rule="evenodd" sketch:type="MSPage">
        <g id="Main-1440х900-Copy" sketch:type="MSArtboardGroup" transform="translate(-126.000000, -30.000000)" fill="#C4C3C0">
            <g id="Menu" sketch:type="MSLayerGroup">
                <g id="Group-9" transform="translate(110.000000, 15.000000)" sketch:type="MSShapeGroup">
                    <g id="person-outline" transform="translate(16.000000, 15.000000)">
                        <path d="M9,2.1375 C10.35,2.1375 11.3625,3.15 11.3625,4.5 C11.3625,5.85 10.35,6.8625 9,6.8625 C7.65,6.8625 6.6375,5.85 6.6375,4.5 C6.6375,3.15 7.65,2.1375 9,2.1375 L9,2.1375 Z M9,12.2625 C12.375,12.2625 15.8625,13.95 15.8625,14.625 L15.8625,15.8625 L2.1375,15.8625 L2.1375,14.625 C2.1375,13.95 5.625,12.2625 9,12.2625 L9,12.2625 Z M9,0 C6.525,0 4.5,2.025 4.5,4.5 C4.5,6.975 6.525,9 9,9 C11.475,9 13.5,6.975 13.5,4.5 C13.5,2.025 11.475,0 9,0 L9,0 L9,0 Z M9,10.125 C5.9625,10.125 0,11.5875 0,14.625 L0,18 L18,18 L18,14.625 C18,11.5875 12.0375,10.125 9,10.125 L9,10.125 L9,10.125 Z" id="Shape"></path>
                    </g>
                </g>
            </g>
        </g>
    </g>
</svg>